<mxfile host="app.diagrams.net" modified="2020-10-11T07:36:21.323Z" agent="5.0 (Windows NT 10.0; Win64; x64) AppleWebKit/537.36 (KHTML, like Gecko) Chrome/85.0.4183.121 Safari/537.36" etag="pASB9gruXQH0EnvUFszX" version="13.7.9" type="github">
  <diagram id="CHFsG_w3uPf1iSv5TZgQ" name="Page-1">
    <mxGraphModel dx="782" dy="437" grid="1" gridSize="10" guides="1" tooltips="1" connect="1" arrows="1" fold="1" page="1" pageScale="1" pageWidth="850" pageHeight="1100" math="0" shadow="0">
      <root>
        <mxCell id="0" />
        <mxCell id="1" parent="0" />
        <mxCell id="QnMXk2CI82lRMMDj2Jyk-1" value="khởi tạo&amp;nbsp;&lt;br&gt;(n kiến, mùi kiến )" style="rounded=0;whiteSpace=wrap;html=1;" vertex="1" parent="1">
          <mxGeometry x="232.5" y="70" width="115" height="40" as="geometry" />
        </mxCell>
        <mxCell id="QnMXk2CI82lRMMDj2Jyk-2" value="for 1 đến n (kiến)&amp;nbsp;" style="rounded=0;whiteSpace=wrap;html=1;" vertex="1" parent="1">
          <mxGeometry x="245" y="140" width="90" height="40" as="geometry" />
        </mxCell>
        <mxCell id="QnMXk2CI82lRMMDj2Jyk-3" value="foreach n(kiến) tự xây dựng đường đi với các điểm kề đến đích" style="rounded=0;whiteSpace=wrap;html=1;" vertex="1" parent="1">
          <mxGeometry x="225" y="210" width="130" height="70" as="geometry" />
        </mxCell>
        <mxCell id="QnMXk2CI82lRMMDj2Jyk-5" value="đích" style="rhombus;whiteSpace=wrap;html=1;" vertex="1" parent="1">
          <mxGeometry x="230" y="320" width="120" height="80" as="geometry" />
        </mxCell>
        <mxCell id="QnMXk2CI82lRMMDj2Jyk-7" value="" style="endArrow=classic;html=1;exitX=0.5;exitY=1;exitDx=0;exitDy=0;entryX=0.5;entryY=0;entryDx=0;entryDy=0;" edge="1" parent="1" source="QnMXk2CI82lRMMDj2Jyk-1" target="QnMXk2CI82lRMMDj2Jyk-2">
          <mxGeometry width="50" height="50" relative="1" as="geometry">
            <mxPoint x="380" y="310" as="sourcePoint" />
            <mxPoint x="430" y="260" as="targetPoint" />
          </mxGeometry>
        </mxCell>
        <mxCell id="QnMXk2CI82lRMMDj2Jyk-8" value="" style="endArrow=classic;html=1;exitX=0.5;exitY=1;exitDx=0;exitDy=0;entryX=0.5;entryY=0;entryDx=0;entryDy=0;" edge="1" parent="1" source="QnMXk2CI82lRMMDj2Jyk-2" target="QnMXk2CI82lRMMDj2Jyk-3">
          <mxGeometry width="50" height="50" relative="1" as="geometry">
            <mxPoint x="380" y="310" as="sourcePoint" />
            <mxPoint x="430" y="260" as="targetPoint" />
          </mxGeometry>
        </mxCell>
        <mxCell id="QnMXk2CI82lRMMDj2Jyk-9" value="" style="endArrow=classic;html=1;entryX=0.5;entryY=0;entryDx=0;entryDy=0;exitX=0.5;exitY=1;exitDx=0;exitDy=0;" edge="1" parent="1" source="QnMXk2CI82lRMMDj2Jyk-3" target="QnMXk2CI82lRMMDj2Jyk-5">
          <mxGeometry width="50" height="50" relative="1" as="geometry">
            <mxPoint x="110" y="250" as="sourcePoint" />
            <mxPoint x="160" y="200" as="targetPoint" />
          </mxGeometry>
        </mxCell>
        <mxCell id="QnMXk2CI82lRMMDj2Jyk-12" value="cập nhật mùi và quay lại vị trí ban đầu" style="rounded=0;whiteSpace=wrap;html=1;" vertex="1" parent="1">
          <mxGeometry x="30" y="335" width="110" height="50" as="geometry" />
        </mxCell>
        <mxCell id="QnMXk2CI82lRMMDj2Jyk-13" value="tiếp tục tìm đường đến đich" style="rounded=0;whiteSpace=wrap;html=1;" vertex="1" parent="1">
          <mxGeometry x="430" y="330" width="120" height="60" as="geometry" />
        </mxCell>
        <mxCell id="QnMXk2CI82lRMMDj2Jyk-14" value="" style="endArrow=classic;html=1;entryX=1;entryY=0.5;entryDx=0;entryDy=0;exitX=0;exitY=0.5;exitDx=0;exitDy=0;" edge="1" parent="1" source="QnMXk2CI82lRMMDj2Jyk-5" target="QnMXk2CI82lRMMDj2Jyk-12">
          <mxGeometry width="50" height="50" relative="1" as="geometry">
            <mxPoint x="180" y="410" as="sourcePoint" />
            <mxPoint x="230" y="360" as="targetPoint" />
          </mxGeometry>
        </mxCell>
        <mxCell id="QnMXk2CI82lRMMDj2Jyk-15" value="" style="endArrow=classic;html=1;entryX=0;entryY=0.5;entryDx=0;entryDy=0;" edge="1" parent="1" source="QnMXk2CI82lRMMDj2Jyk-5" target="QnMXk2CI82lRMMDj2Jyk-13">
          <mxGeometry width="50" height="50" relative="1" as="geometry">
            <mxPoint x="350" y="410" as="sourcePoint" />
            <mxPoint x="400" y="360" as="targetPoint" />
          </mxGeometry>
        </mxCell>
        <mxCell id="QnMXk2CI82lRMMDj2Jyk-16" value="true" style="text;html=1;strokeColor=none;fillColor=none;align=center;verticalAlign=middle;whiteSpace=wrap;rounded=0;" vertex="1" parent="1">
          <mxGeometry x="160" y="335" width="60" height="35" as="geometry" />
        </mxCell>
        <mxCell id="QnMXk2CI82lRMMDj2Jyk-19" value="false" style="text;html=1;strokeColor=none;fillColor=none;align=center;verticalAlign=middle;whiteSpace=wrap;rounded=0;" vertex="1" parent="1">
          <mxGeometry x="370" y="335" width="40" height="20" as="geometry" />
        </mxCell>
        <mxCell id="QnMXk2CI82lRMMDj2Jyk-20" value="" style="endArrow=classic;html=1;entryX=1;entryY=0.5;entryDx=0;entryDy=0;" edge="1" parent="1" target="QnMXk2CI82lRMMDj2Jyk-3">
          <mxGeometry width="50" height="50" relative="1" as="geometry">
            <mxPoint x="490" y="245" as="sourcePoint" />
            <mxPoint x="500" y="250" as="targetPoint" />
          </mxGeometry>
        </mxCell>
        <mxCell id="QnMXk2CI82lRMMDj2Jyk-21" value="" style="endArrow=none;html=1;exitX=0.5;exitY=0;exitDx=0;exitDy=0;" edge="1" parent="1" source="QnMXk2CI82lRMMDj2Jyk-13">
          <mxGeometry width="50" height="50" relative="1" as="geometry">
            <mxPoint x="480" y="320" as="sourcePoint" />
            <mxPoint x="490" y="240" as="targetPoint" />
          </mxGeometry>
        </mxCell>
        <mxCell id="QnMXk2CI82lRMMDj2Jyk-22" value="" style="endArrow=classic;html=1;" edge="1" parent="1" source="QnMXk2CI82lRMMDj2Jyk-12">
          <mxGeometry width="50" height="50" relative="1" as="geometry">
            <mxPoint x="85" y="435" as="sourcePoint" />
            <mxPoint x="85" y="455.71067811865476" as="targetPoint" />
          </mxGeometry>
        </mxCell>
        <mxCell id="QnMXk2CI82lRMMDj2Jyk-23" value="so sánh&amp;nbsp;" style="rhombus;whiteSpace=wrap;html=1;" vertex="1" parent="1">
          <mxGeometry x="30" y="460" width="110" height="80" as="geometry" />
        </mxCell>
        <mxCell id="QnMXk2CI82lRMMDj2Jyk-24" value="chọn đường đi" style="rounded=0;whiteSpace=wrap;html=1;" vertex="1" parent="1">
          <mxGeometry x="245" y="475" width="110" height="50" as="geometry" />
        </mxCell>
        <mxCell id="QnMXk2CI82lRMMDj2Jyk-25" value="loại" style="rounded=0;whiteSpace=wrap;html=1;" vertex="1" parent="1">
          <mxGeometry x="25" y="590" width="120" height="50" as="geometry" />
        </mxCell>
        <mxCell id="QnMXk2CI82lRMMDj2Jyk-26" value="" style="endArrow=classic;html=1;exitX=0.5;exitY=1;exitDx=0;exitDy=0;entryX=0.5;entryY=0;entryDx=0;entryDy=0;" edge="1" parent="1" source="QnMXk2CI82lRMMDj2Jyk-23" target="QnMXk2CI82lRMMDj2Jyk-25">
          <mxGeometry width="50" height="50" relative="1" as="geometry">
            <mxPoint x="80" y="590" as="sourcePoint" />
            <mxPoint x="130" y="540" as="targetPoint" />
          </mxGeometry>
        </mxCell>
        <mxCell id="QnMXk2CI82lRMMDj2Jyk-27" value="" style="endArrow=classic;html=1;exitX=1;exitY=0.5;exitDx=0;exitDy=0;entryX=0;entryY=0.5;entryDx=0;entryDy=0;" edge="1" parent="1" source="QnMXk2CI82lRMMDj2Jyk-23" target="QnMXk2CI82lRMMDj2Jyk-24">
          <mxGeometry width="50" height="50" relative="1" as="geometry">
            <mxPoint x="150" y="540" as="sourcePoint" />
            <mxPoint x="200" y="490" as="targetPoint" />
          </mxGeometry>
        </mxCell>
        <mxCell id="QnMXk2CI82lRMMDj2Jyk-28" value="nếu nhiều mùi&amp;nbsp;" style="text;html=1;strokeColor=none;fillColor=none;align=center;verticalAlign=middle;whiteSpace=wrap;rounded=0;" vertex="1" parent="1">
          <mxGeometry x="150" y="470" width="80" height="30" as="geometry" />
        </mxCell>
        <mxCell id="QnMXk2CI82lRMMDj2Jyk-29" value="nếu&amp;nbsp; ít mùi&amp;nbsp;" style="text;html=1;strokeColor=none;fillColor=none;align=center;verticalAlign=middle;whiteSpace=wrap;rounded=0;" vertex="1" parent="1">
          <mxGeometry x="50" y="540" width="80" height="30" as="geometry" />
        </mxCell>
        <mxCell id="QnMXk2CI82lRMMDj2Jyk-30" value="(vì đoạn đường dài thì nhanh mất mùi và ngược lại)" style="text;html=1;strokeColor=none;fillColor=none;align=center;verticalAlign=middle;whiteSpace=wrap;rounded=0;" vertex="1" parent="1">
          <mxGeometry x="130" y="530" width="135" height="40" as="geometry" />
        </mxCell>
      </root>
    </mxGraphModel>
  </diagram>
</mxfile>
